<?xml version="1.0" encoding="UTF-8" standalone="no"?>
<!-- Created with Inkscape (http://www.inkscape.org/) -->

<svg
   width="800"
   height="800"
   viewBox="0 0 800 800.00003"
   version="1.1"
   id="svg5462"
   inkscape:version="1.4 (e7c3feb100, 2024-10-09)"
   sodipodi:docname="mako.svg"
   inkscape:export-filename="morfosis_brand.png"
   inkscape:export-xdpi="14.4"
   inkscape:export-ydpi="14.4"
   xmlns:inkscape="http://www.inkscape.org/namespaces/inkscape"
   xmlns:sodipodi="http://sodipodi.sourceforge.net/DTD/sodipodi-0.dtd"
   xmlns="http://www.w3.org/2000/svg"
   xmlns:svg="http://www.w3.org/2000/svg"
   xmlns:rdf="http://www.w3.org/1999/02/22-rdf-syntax-ns#"
   xmlns:cc="http://creativecommons.org/ns#"
   xmlns:dc="http://purl.org/dc/elements/1.1/">
  <defs
     id="defs5456" />
  <sodipodi:namedview
     id="base"
     pagecolor="#ffffff"
     bordercolor="#000000"
     borderopacity="0.30"
     inkscape:pageopacity="0.0"
     inkscape:pageshadow="2"
     inkscape:zoom="0.3233162"
     inkscape:cx="352.596"
     inkscape:cy="-197.94863"
     inkscape:document-units="px"
     inkscape:current-layer="g65168"
     inkscape:showpageshadow="2"
     inkscape:pagecheckerboard="0"
     inkscape:deskcolor="#d1d1d1"
     showgrid="false"
     inkscape:window-width="1169"
     inkscape:window-height="994"
     inkscape:window-x="0"
     inkscape:window-y="0"
     inkscape:window-maximized="0" />
  <metadata
     id="metadata5459">
    <rdf:RDF>
      <cc:Work
         rdf:about="">
        <dc:format>image/svg+xml</dc:format>
        <dc:type
           rdf:resource="http://purl.org/dc/dcmitype/StillImage" />
      </cc:Work>
    </rdf:RDF>
  </metadata>
  <g
     inkscape:label="Layer 1"
     inkscape:groupmode="layer"
     id="layer1">
    <g
       id="g64033"
       transform="matrix(17.957275,0,0,17.957275,-8872.6593,-4915.8729)">
      <g
         id="g65168"
         transform="matrix(0.92812894,0,0,0.92812894,30.033844,13.877732)">
        <rect
           style="fill:#dbf0b1;fill-opacity:1;stroke:none;stroke-width:0.29656;stroke-linecap:round;stroke-linejoin:round;stroke-opacity:1"
           id="rect55140"
           width="48"
           height="48"
           x="500"
           y="280"
           ry="4.2073011" />
        <g
           id="g5"
           transform="matrix(0.84169238,0,0,0.84169238,82.498499,48.769618)">
          <path
             id="path1"
             style="fill:#78d410;fill-opacity:1;stroke-width:0.564447;stroke-linecap:round;stroke-linejoin:round"
             d="m 514.50732,295.80037 a 5.1961513,5.1961513 0 0 0 -5.19609,5.19622 5.1961513,5.1961513 0 0 0 1.46578,3.59941 15.402878,10.531486 0 0 0 -1.63969,4.7052 15.402878,10.531486 0 0 0 0.0135,0.14085 h 30.77882 a 15.402878,10.531486 0 0 0 0.0136,-0.14085 15.402878,10.531486 0 0 0 -2.04059,-5.23489 5.1961513,5.1961513 0 0 0 1.01989,-3.06972 5.1961513,5.1961513 0 0 0 -5.19622,-5.19622 5.1961513,5.1961513 0 0 0 -4.85988,3.39516 15.402878,10.531486 0 0 0 -4.32609,-0.42586 h -1.2e-4 a 15.402878,10.531486 0 0 0 -5.09742,0.60668 5.1961513,5.1961513 0 0 0 -4.93547,-3.57598 z" />
          <circle
             style="fill:#3d5f7a;stroke-width:0.390069;stroke-linecap:round;stroke-linejoin:round"
             id="circle4"
             cx="534.92627"
             cy="300.99655"
             r="2.9692292" />
          <rect
             style="fill:#35b3bc;fill-opacity:1;stroke-width:0.68262;stroke-linecap:round;stroke-linejoin:round"
             id="rect5"
             width="35.167641"
             height="2.6244586"
             x="506.95639"
             y="308.04465"
             ry="1.1598552" />
          <circle
             style="fill:#3d5f7a;stroke-width:0.390069;stroke-linecap:round;stroke-linejoin:round"
             id="circle6"
             cx="515.70728"
             cy="300.99655"
             r="2.9692292" />
        </g>
      </g>
    </g>
  </g>
</svg>
